HIERARCHY
ROOT Hips
{
	OFFSET 0.00000 0.00000 0.00000
	CHANNELS 6 Xposition Yposition Zposition Zrotation Yrotation Xrotation 
	JOINT LHipJoint
	{
		OFFSET 0 0 0
		CHANNELS 3 Zrotation Yrotation Xrotation
		JOINT LeftHip
		{
			OFFSET 1.38280 -1.96574 0.54427
			CHANNELS 3 Zrotation Yrotation Xrotation
			JOINT LeftKnee
			{
				OFFSET 2.72096 -7.47578 0.00000
				CHANNELS 3 Zrotation Yrotation Xrotation
				JOINT LeftAnkle
				{
					OFFSET 2.73041 -7.50176 0.00000
					CHANNELS 3 Zrotation Yrotation Xrotation
					JOINT LeftToe
					{
						OFFSET 0.16150 -0.44371 2.18031
						CHANNELS 3 Zrotation Yrotation Xrotation
						End Site
						{
							OFFSET 0.00000 -0.00000 1.12127
						}
					}
				}
			}
		}
	}
	JOINT RHipJoint
	{
		OFFSET 0 0 0
		CHANNELS 3 Zrotation Yrotation Xrotation
		JOINT RightHip
		{
			OFFSET -1.57224 -1.96575 0.54427
			CHANNELS 3 Zrotation Yrotation Xrotation
			JOINT RightKnee
			{
				OFFSET -2.95935 -8.13076 0.00000
				CHANNELS 3 Zrotation Yrotation Xrotation
				JOINT RightAnkle
				{
					OFFSET -2.52345 -6.93311 0.00000
					CHANNELS 3 Zrotation Yrotation Xrotation
					JOINT RightToe
					{
						OFFSET -0.04475 -0.10171 1.86688
						CHANNELS 3 Zrotation Yrotation Xrotation
						End Site
						{
							OFFSET -0.00000 -0.00000 0.95157
						}
					}
				}
			}
		}
	}
	JOINT lowerback
	{
		OFFSET 0 0 0
		CHANNELS 3 Zrotation Yrotation Xrotation
		JOINT Chest
		{
			OFFSET 0.00669 2.07367 0.09104
			CHANNELS 3 Zrotation Yrotation Xrotation
			JOINT Chest2
			{
				OFFSET -0.00664 2.06198 -0.04732
				CHANNELS 3 Zrotation Yrotation Xrotation
				JOINT lowerneck
				{
					OFFSET 0 0 0
					CHANNELS 3 Zrotation Yrotation Xrotation
					JOINT Neck
					{
						OFFSET -0.00021 1.49948 0.16345
						CHANNELS 3 Zrotation Yrotation Xrotation
						JOINT Head
						{
							OFFSET 0.06080 1.50567 -0.26702
							CHANNELS 3 Zrotation Yrotation Xrotation
							End Site
							{
								OFFSET 0.01726 1.56470 -0.11854
							}
						}
					}
				}
				JOINT LeftCollar
				{
					OFFSET 0 0 0
					CHANNELS 3 Zrotation Yrotation Xrotation
					JOINT LeftShoulder
					{
						OFFSET 3.14993 0.82932 -0.22488
CHANNELS 3 Zrotation Xrotation Yrotation
						JOINT LeftElbow
						{
OFFSET 0 -5.682360 -0.000000
CHANNELS 3 Zrotation Xrotation Yrotation
							JOINT LeftWrist
							{
OFFSET 0 -3.171120 0.000000
CHANNELS 3 Zrotation Xrotation Yrotation
								JOINT lhand
								{
									OFFSET 0 0 0
CHANNELS 3 Zrotation Xrotation Yrotation
									JOINT LFingers
									{
OFFSET 0 -0.632690 0.000000
CHANNELS 3 Zrotation Xrotation Yrotation
										End Site
										{
OFFSET 0 -0.510090 0.000000
										}
									}
								}
								JOINT LThumb
								{
OFFSET 0 0.000000 0.000000
CHANNELS 3 Zrotation Xrotation Yrotation
									End Site
									{
OFFSET 0 -0.517880 0.517880
									}
								}
							}
						}
					}
				}
				JOINT RightCollar
				{
					OFFSET 0 0 0
					CHANNELS 3 Zrotation Yrotation Xrotation
					JOINT RightShoulder
					{
						OFFSET -3.10571 0.91279 -0.33334
CHANNELS 3 Zrotation Xrotation Yrotation
						JOINT RightElbow
						{
OFFSET 0 -5.871200 -0.000000
CHANNELS 3 Zrotation Xrotation Yrotation
							JOINT RightWrist
							{
OFFSET 0 -3.375890 0.000000
CHANNELS 3 Zrotation Xrotation Yrotation
								JOINT rhand
								{
									OFFSET 0 0 0
CHANNELS 3 Zrotation Xrotation Yrotation
									JOINT RFingers
									{
OFFSET 0 -0.603260 0.000000
CHANNELS 3 Zrotation Xrotation Yrotation
										End Site
										{
OFFSET 0 -0.486360 0.000000
										}
									}
								}
								JOINT RThumb
								{
OFFSET 0 0.000000 0.000000
CHANNELS 3 Zrotation Xrotation Yrotation
									End Site
									{
OFFSET 0 -0.493790 0.493790
									}
								}
							}
						}
					}
				}
			}
		}
	}
}
MOTION
Frames: 6
Frame Time: 0.008333333333333333
10.527300 18.340300 -15.117500 -135.800000 -83.133700 142.940000 0.000000 0.000000 0.000000 -18.807100 -6.543100 -17.727300 3.027700 10.739800 31.407200 2.181400 0.524000 -28.154600 0.426300 -4.190400 -11.612900 0.000000 0.000000 0.000000 21.317700 10.560500 -21.383100 -7.978700 -16.103600 52.486100 0.010500 1.993900 -0.154100 -1.505800 -7.750500 21.958700 -1.105200 0.441800 -7.047000 0.175400 0.680200 1.432400 0.882500 0.297600 5.430600 0.182000 4.184000 -19.248200 -1.660600 6.049000 20.394400 0.221300 2.571400 9.698400 -0.000000 -0.000000 0.000000 4.843100 -10.177400 -35.034200 17.240000 -27.173000 4.196300 11.887200 -3.962300 -30.066300 0.000000 0.000000 0.000000 -7.125000 0.000000 0.000000 -21.987800 59.213800 7.871000 -0.000000 -0.000000 0.000000 -8.547700 -1.427600 22.589600 -18.216200 -28.433100 -4.651700 -23.166600 -8.221100 -23.044400 0.000000 0.000000 0.000000 7.125000 0.000000 -0.000000 3.660000 5.192900 3.320600
9.849875 18.359321 -14.925016 -114.976674 -84.965317 122.093816 0.000000 0.000000 0.000000 -20.028115 -6.185898 -14.029079 2.570571 9.965111 28.863963 2.114181 -0.264451 -27.459641 0.643824 -5.132939 -14.288206 0.000000 0.000000 0.000000 17.033598 19.009459 -24.638741 -5.431130 -13.852305 42.651343 -0.006137 1.772788 -1.749102 -4.086769 -12.274491 36.710746 -1.257415 -0.226659 -6.681174 0.669669 -0.228857 1.572807 1.376972 -0.165517 5.393476 0.817114 4.913456 -19.349371 -2.157860 7.031512 22.591204 0.111993 2.945149 10.561981 0.000000 0.000000 0.000000 3.749211 -13.717565 -38.608549 20.025416 -30.672489 5.544480 12.442764 -6.385033 -30.520500 0.000000 0.000000 0.000000 -7.125000 0.000000 0.000000 -21.763437 59.759061 8.071974 0.000000 0.000000 0.000000 -9.612273 0.539591 21.820354 -16.853047 -26.663633 -4.021186 -23.044015 -6.093865 -23.738466 0.000000 0.000000 0.000000 7.125000 0.000000 0.000000 3.811142 4.484886 3.509349
9.066868 18.398175 -14.738044 -77.709847 -85.614304 85.105147 0.000000 0.000000 0.000000 -21.000940 -4.413828 -9.849415 1.877802 8.606441 24.572029 1.963575 -2.133310 -25.931154 0.702974 -5.358993 -14.935375 0.000000 0.000000 0.000000 12.319106 25.773082 -25.484975 -1.759530 -8.341748 23.759681 -0.004897 0.081762 -1.301778 -5.206465 -13.612557 41.707123 -0.904436 -0.693353 -6.086201 1.219625 -0.919593 1.866938 1.676982 -0.508809 5.390031 1.267078 5.205018 -18.924138 -2.673908 7.428658 22.301865 -0.098049 3.116024 10.425393 0.000000 0.000000 0.000000 3.759251 -12.923188 -41.826696 24.843111 -36.042799 8.197536 11.332129 -9.054710 -29.153962 0.000000 0.000000 0.000000 -7.125000 0.000000 0.000000 -21.876715 58.250288 7.317743 0.000000 0.000000 0.000000 -9.297531 2.776434 17.584402 -16.091763 -25.644950 -3.685639 -23.205366 -6.618975 -24.642837 0.000000 0.000000 0.000000 7.125000 0.000000 0.000000 3.814013 3.505863 3.581735
8.178653 18.376652 -14.569435 -48.652913 -85.708778 56.593294 0.000000 0.000000 0.000000 -22.567599 -2.244555 -5.055456 1.157758 6.830963 19.215622 1.687733 -3.296290 -23.730690 0.566164 -4.819020 -13.393081 0.000000 0.000000 0.000000 11.863549 22.404004 -28.226361 -0.269312 -3.332582 9.206583 0.023296 -4.171318 1.864423 -5.572867 -14.001245 43.242373 -0.891939 -0.682741 -6.355818 1.536002 -0.932757 2.395939 1.995108 -0.531626 6.106619 1.573309 5.412640 -18.769049 -3.327806 7.817785 23.198721 -0.317244 3.209903 10.778959 0.000000 0.000000 0.000000 3.644174 -10.648516 -40.638554 24.972180 -36.175132 8.273680 10.661651 -9.672024 -29.100635 0.000000 0.000000 0.000000 -7.125000 0.000000 0.000000 -22.521542 58.055546 7.440963 0.000000 0.000000 0.000000 -9.000859 4.643555 13.171453 -15.336859 -24.613252 -3.365036 -21.776963 -5.633441 -25.400889 0.000000 0.000000 0.000000 7.125000 0.000000 0.000000 4.770297 2.978311 4.531922
7.139861 18.241288 -14.478461 -26.325936 -84.729339 34.658116 0.000000 0.000000 0.000000 -23.374112 -0.901993 -0.750992 0.899287 6.043686 16.911379 1.618996 -4.604733 -23.010691 0.661440 -5.201506 -14.484187 0.000000 0.000000 0.000000 11.442818 23.229366 -26.693285 -0.016285 -0.782992 2.152127 0.241299 -9.024054 -0.635910 -5.661418 -14.091983 43.607121 -0.584840 -0.730054 -5.936514 1.790883 -1.043765 2.571376 2.078954 -0.583102 6.055686 1.322432 5.418247 -18.857151 -2.920716 7.819293 24.153077 -0.120253 3.207927 11.119401 0.000000 0.000000 0.000000 3.597917 -7.628595 -35.181937 18.646048 -28.974807 4.859014 12.869342 -5.662735 -29.899305 0.000000 0.000000 0.000000 -7.125000 0.000000 0.000000 -20.840918 59.282363 7.471395 0.000000 0.000000 0.000000 -9.404900 5.898490 9.357569 -14.444780 -23.366968 -3.002234 -19.325003 -2.898151 -25.630018 0.000000 0.000000 0.000000 7.125000 0.000000 0.000000 6.282391 3.170455 5.961617
5.838048 18.087733 -14.444953 -7.581648 -81.885890 16.790599 0.000000 0.000000 0.000000 -23.339235 0.157896 3.070484 0.831280 5.816615 16.253266 1.240821 -7.165372 -19.903410 0.634667 -5.084171 -14.151400 0.000000 0.000000 0.000000 10.854415 25.391636 -28.544189 -0.476122 -4.424553 12.274287 0.214300 -10.945244 3.775970 -5.779263 -14.210906 44.089143 -0.280161 -0.969378 -6.081166 1.940301 -1.395022 2.351917 2.022979 -0.745567 5.918688 1.248353 5.185997 -18.676985 -2.998995 7.532633 23.745942 -0.187402 3.082308 10.926646 0.000000 0.000000 0.000000 3.980470 -3.503775 -26.545144 11.939527 -19.713579 2.082114 14.435676 1.808296 -31.813104 0.000000 0.000000 0.000000 -7.125000 0.000000 0.000000 -20.705203 61.428235 8.484715 0.000000 0.000000 0.000000 -10.157019 7.367365 5.621217 -13.970372 -22.692396 -2.816700 -17.573729 -0.600312 -23.372653 0.000000 0.000000 0.000000 7.125000 0.000000 0.000000 7.168462 5.754268 6.465606
